<?xml version="1.0" encoding="UTF-8"?>
<svg id="Layer_2" data-name="Layer 2" xmlns="http://www.w3.org/2000/svg" viewBox="0 0 215.81 162.19">
  <defs>
    <style>
      .cls-1 {
        stroke: #24b34b;
      }

      .cls-1, .cls-2, .cls-3, .cls-4 {
        fill: none;
        stroke-miterlimit: 10;
      }

      .cls-2 {
        stroke: #2d2d2d;
      }

      .cls-3 {
        stroke: #2a3492;
      }

      .cls-4 {
        stroke: #ee2354;
      }

      .cls-5 {
        fill: #231f20;
        font-family: LucidaSans, LucidaSans;
        font-size: 7px;
      }
    </style>
  </defs>
  <g id="Layer_1-2" data-name="Layer 1">
    <path class="cls-4" d="M45.82,23.23s17.19,1.43,22.69,1.43,22.8-2.2,27.65-.72l4.85,1.49s7.82,3.53,11.57,6.72c2.02,1.73,5.35,4.44,8.18,7.28,2.41,2.41,4.63,4.96,5.59,6.38.89,1.32,2.45,3.28,3.86,5.2,1.89,2.58,3.39,5.1,3.97,6.04.53.86,1.68,2.72,2.81,4.98,1.21,2.41,2.42,5.28,3.56,7.44,2.14,4.07,6.95,15.35,6.95,15.35"/>
    <path class="cls-3" d="M45.66,23.75s18.62,1.65,21.04,1.65,14.87.11,17.3,0c1.6-.07,4.31.04,8.41,1.23,2.11.61,6.19,1.77,7.46,2.37,3.75,1.76,9.69,4.59,14.11,7.49,1.15.75,5.13,3.26,9.19,5.89,3.7,2.4,7.5,4.92,8.69,5.93,1.25,1.06,3.05,2.53,4.62,4.09,1.74,1.73,3.19,3.53,3.74,4.12,1.11,1.19,7.36,7.96,7.36,7.96"/>
    <path class="cls-1" d="M45.88,23.23s12.78,1.32,17.19,1.32,20.38-1.32,24.02-1.32,11.68.33,13.22.66,4.83,1.98,8.25,3.75,12.57,7.71,13.12,8.26,5.24,4.43,7.48,6.42,6.95,8.23,7.28,9,11.06,20.39,11.06,20.39"/>
    <line class="cls-2" x1="18.5" y1="4.1" x2="18.5" y2="150.01"/>
    <line class="cls-2" x1="211.57" y1="150.01" x2="18.76" y2="150.01"/>
    <text class="cls-5" transform="translate(8.99 151.37)"><tspan x="0" y="0">1</tspan></text>
    <line class="cls-2" x1="18.5" y1="26.7" x2="23.48" y2="26.7"/>
    <line class="cls-2" x1="18.5" y1="49.02" x2="23.48" y2="49.02"/>
    <line class="cls-2" x1="18.5" y1="93" x2="23.48" y2="93"/>
    <line class="cls-2" x1="18.5" y1="100.81" x2="23.48" y2="100.81"/>
    <line class="cls-2" x1="18.5" y1="112.08" x2="23.48" y2="112.08"/>
    <line class="cls-2" x1="18.2" y1="131" x2="23.18" y2="131"/>
    <text class="cls-5" transform="translate(16.96 160.37)"><tspan x="0" y="0">1</tspan></text>
    <line class="cls-2" x1="39.07" y1="149.74" x2="39.07" y2="146.1"/>
    <line class="cls-2" x1="118.8" y1="149.67" x2="118.8" y2="146.03"/>
    <line class="cls-2" x1="154.16" y1="149.67" x2="154.16" y2="146.03"/>
    <text class="cls-5" transform="translate(10.91 133.19)"><tspan x="0" y="0">2</tspan></text>
    <text class="cls-5" transform="translate(10.91 122.12)"><tspan x="0" y="0">3</tspan></text>
    <text class="cls-5" transform="translate(11.21 108.67)"><tspan x="0" y="0">5</tspan></text>
    <text class="cls-5" transform="translate(10.74 98.11)"><tspan x="0" y="0">7</tspan></text>
    <text class="cls-5" transform="translate(4.88 87.87)"><tspan x="0" y="0">10</tspan></text>
    <text class="cls-5" transform="translate(6.83 69.29)"><tspan x="0" y="0">20</tspan></text>
    <text class="cls-5" transform="translate(7.14 57.48)"><tspan x="0" y="0">30</tspan></text>
    <text class="cls-5" transform="translate(7.44 44.11)"><tspan x="0" y="0">50</tspan></text>
    <text class="cls-5" transform="translate(7.44 34.64)"><tspan x="0" y="0">70</tspan></text>
    <text class="cls-5" transform="translate(.25 24.55)"><tspan x="0" y="0">100</tspan></text>
    <text class="cls-5" transform="translate(0 5.86)"><tspan x="0" y="0">200</tspan></text>
    <line class="cls-2" x1="18.5" y1="30.01" x2="23.48" y2="30.01"/>
    <line class="cls-2" x1="18.5" y1="119.94" x2="23.48" y2="119.94"/>
    <line class="cls-2" x1="51.01" y1="149.74" x2="51.01" y2="146.1"/>
    <line class="cls-2" x1="59.44" y1="149.74" x2="59.44" y2="146.1"/>
    <line class="cls-2" x1="65.88" y1="149.74" x2="65.88" y2="146.1"/>
    <line class="cls-2" x1="71.43" y1="149.74" x2="71.43" y2="146.1"/>
    <line class="cls-2" x1="76.03" y1="149.74" x2="76.03" y2="146.1"/>
    <line class="cls-2" x1="79.8" y1="149.74" x2="79.8" y2="146.1"/>
    <line class="cls-2" x1="83.42" y1="149.74" x2="83.42" y2="146.1"/>
    <line class="cls-2" x1="127.23" y1="149.67" x2="127.23" y2="146.03"/>
    <line class="cls-2" x1="143.47" y1="149.67" x2="143.47" y2="146.03"/>
    <line class="cls-2" x1="147.35" y1="149.67" x2="147.35" y2="146.03"/>
    <line class="cls-2" x1="150.91" y1="149.67" x2="150.91" y2="146.03"/>
    <line class="cls-2" x1="186.28" y1="149.76" x2="186.28" y2="146.11"/>
    <line class="cls-2" x1="194.75" y1="149.76" x2="194.75" y2="146.11"/>
    <line class="cls-2" x1="201.52" y1="149.76" x2="201.52" y2="146.11"/>
    <line class="cls-2" x1="206.82" y1="149.76" x2="206.82" y2="146.11"/>
    <text class="cls-5" transform="translate(37.82 160.37)"><tspan x="0" y="0">2</tspan></text>
    <text class="cls-5" transform="translate(49.87 160.37)"><tspan x="0" y="0">3</tspan></text>
    <text class="cls-5" transform="translate(58.3 160.37)"><tspan x="0" y="0">4</tspan></text>
    <text class="cls-5" transform="translate(65.08 160.37)"><tspan x="0" y="0">5</tspan></text>
    <text class="cls-5" transform="translate(84.72 160.37)"><tspan x="0" y="0">10</tspan></text>
    <text class="cls-5" transform="translate(105.49 160.44)"><tspan x="0" y="0">20</tspan></text>
    <text class="cls-5" transform="translate(132.87 160.37)"><tspan x="0" y="0">50</tspan></text>
    <text class="cls-5" transform="translate(153.16 160.37)"><tspan x="0" y="0">100</tspan></text>
    <text class="cls-5" transform="translate(172.68 160.37)"><tspan x="0" y="0">200</tspan></text>
    <text class="cls-5" transform="translate(205.04 160.37)"><tspan x="0" y="0">700</tspan></text>
  </g>
</svg>