<?xml version="1.0" encoding="UTF-8"?>
<svg id="Layer_2" data-name="Layer 2" xmlns="http://www.w3.org/2000/svg" xmlns:xlink="http://www.w3.org/1999/xlink" viewBox="0 0 211.15 225.85">
  <defs>
    <style>
      .cls-1, .cls-2, .cls-3 {
        fill: none;
      }

      .cls-2 {
        stroke: #2d2d2d;
      }

      .cls-2, .cls-3 {
        stroke-miterlimit: 10;
      }

      .cls-4 {
        font-size: 5px;
      }

      .cls-4, .cls-5 {
        fill: #231f20;
        font-family: LucidaSans, LucidaSans;
      }

      .cls-3 {
        stroke: #2c8942;
      }

      .cls-5 {
        font-size: 7px;
      }
    </style>
    <clipPath id="clippath">
      <rect class="cls-1" width="211.15" height="225.85"/>
    </clipPath>
  </defs>
  <g id="Layer_1-2" data-name="Layer 1">
    <path class="cls-3" d="M34.24,146.7s10.73.85,16.94,0,9.69-1.15,15.9-4.54c1.82-.99,6.97-4.48,12.76-9.41,14.06-11.95,34.3-29.82,34.3-29.82l19.05-17.23,24.07-22.37s13.09-10.78,16.59-13.29,12.04-6.92,14.24-7.88c4.55-2,11.61-4.35,11.61-4.35"/>
    <path class="cls-3" d="M34.59,161.94h17.72s3.04.21,8.19-1.34,9.2-3.98,10.15-4.78c1.6-1.34,4.72-3.58,8.91-7.35,5.75-5.16,12.2-11.3,12.2-11.3l17.86-16.59,28.24-26.61,13.34-12.35s15.18-13.76,18.35-16.31,12.42-8.4,15.67-10.16,13.91-6.07,13.91-6.07"/>
    <path class="cls-3" d="M34.24,184.69s11.5,0,12,0c4.73.07,8.76.11,13.54-1.3s10-3.42,14.74-6.93,14-11.83,18.42-15.65,18.51-14.14,23.32-17.96,34.51-27.59,34.51-27.59c0,0,14.25-11.04,19.36-14.05s11.64-5.42,12.74-6.02,15.75-5.52,15.75-5.52"/>
    <line class="cls-2" x1="33.85" y1="27.68" x2="33.85" y2="194.35"/>
    <line class="cls-2" x1="200.18" y1="194.35" x2="34.1" y2="194.35"/>
    <text class="cls-5" transform="translate(18.97 196.4)"><tspan x="0" y="0">0.0</tspan></text>
    <text class="cls-5" transform="translate(19.87 141.13)"><tspan x="0" y="0">1.0</tspan></text>
    <text class="cls-5" transform="translate(19.56 85.48)"><tspan x="0" y="0">2.0</tspan></text>
    <text class="cls-5" transform="translate(19.26 29.73)"><tspan x="0" y="0">3.0</tspan></text>
    <line class="cls-2" x1="33.55" y1="82.52" x2="38.53" y2="82.52"/>
    <line class="cls-2" x1="33.85" y1="138.37" x2="38.83" y2="138.37"/>
    <text class="cls-4" transform="translate(32.19 202.92)"><tspan x="0" y="0">-8</tspan></text>
    <line class="cls-2" x1="96.22" y1="193.92" x2="96.22" y2="190.28"/>
    <line class="cls-2" x1="106.53" y1="193.92" x2="106.53" y2="190.28"/>
    <line class="cls-2" x1="148.07" y1="193.92" x2="148.07" y2="190.28"/>
    <line class="cls-2" x1="179.26" y1="193.92" x2="179.26" y2="190.28"/>
    <line class="cls-2" x1="85.91" y1="193.92" x2="85.91" y2="190.28"/>
    <line class="cls-2" x1="75.47" y1="193.92" x2="75.47" y2="190.28"/>
    <line class="cls-2" x1="65.17" y1="193.92" x2="65.17" y2="190.28"/>
    <line class="cls-2" x1="54.72" y1="193.92" x2="54.72" y2="190.28"/>
    <line class="cls-2" x1="44.44" y1="193.92" x2="44.44" y2="190.28"/>
    <line class="cls-2" x1="116.85" y1="193.92" x2="116.85" y2="190.28"/>
    <line class="cls-2" x1="127.23" y1="193.92" x2="127.23" y2="190.28"/>
    <line class="cls-2" x1="137.61" y1="193.92" x2="137.61" y2="190.28"/>
    <line class="cls-2" x1="158.32" y1="193.92" x2="158.32" y2="190.28"/>
    <line class="cls-2" x1="168.79" y1="193.92" x2="168.79" y2="190.28"/>
    <line class="cls-2" x1="189.58" y1="193.92" x2="189.58" y2="190.28"/>
    <text class="cls-4" transform="translate(41.77 202.98)"><tspan x="0" y="0">-7</tspan></text>
    <text class="cls-4" transform="translate(52.67 202.98)"><tspan x="0" y="0">-6</tspan></text>
    <text class="cls-4" transform="translate(63.12 202.98)"><tspan x="0" y="0">-5</tspan></text>
    <text class="cls-4" transform="translate(72.78 202.98)"><tspan x="0" y="0">-4</tspan></text>
    <text class="cls-4" transform="translate(83.68 203.03)"><tspan x="0" y="0">-3</tspan></text>
    <text class="cls-4" transform="translate(94.17 203.03)"><tspan x="0" y="0">-2</tspan></text>
    <text class="cls-4" transform="translate(104.47 203.09)"><tspan x="0" y="0">-1</tspan></text>
    <text class="cls-4" transform="translate(116.09 203.09)"><tspan x="0" y="0">0</tspan></text>
    <text class="cls-4" transform="translate(125.92 203.08)"><tspan x="0" y="0">1</tspan></text>
    <text class="cls-4" transform="translate(136.32 203.08)"><tspan x="0" y="0">2</tspan></text>
    <text class="cls-4" transform="translate(147.08 203.08)"><tspan x="0" y="0">3</tspan></text>
    <text class="cls-4" transform="translate(156.83 203.08)"><tspan x="0" y="0">4</tspan></text>
    <text class="cls-4" transform="translate(167.33 203.08)"><tspan x="0" y="0">5</tspan></text>
    <text class="cls-4" transform="translate(178.38 203.08)"><tspan x="0" y="0">6</tspan></text>
    <text class="cls-4" transform="translate(188.3 203.08)"><tspan x="0" y="0">7</tspan></text>
    <text class="cls-4" transform="translate(198.98 203.14)"><tspan x="0" y="0">8</tspan></text>
  </g>
</svg>