<?xml version="1.0" encoding="UTF-8"?>
<svg id="Layer_2" data-name="Layer 2" xmlns="http://www.w3.org/2000/svg" xmlns:xlink="http://www.w3.org/1999/xlink" viewBox="0 0 239.45 178.4">
  <defs>
    <style>
      .cls-1, .cls-2, .cls-3, .cls-4, .cls-5 {
        fill: none;
      }

      .cls-6 {
        font-family: Aptos-Narrow-Bold, 'Aptos Narrow';
        font-size: 6.8px;
      }

      .cls-6, .cls-7, .cls-8, .cls-9 {
        font-weight: 700;
      }

      .cls-10 {
        clip-path: url(#clippath-17);
      }

      .cls-11 {
        clip-path: url(#clippath-19);
      }

      .cls-12 {
        clip-path: url(#clippath-11);
      }

      .cls-13 {
        clip-path: url(#clippath-16);
      }

      .cls-14 {
        clip-path: url(#clippath-18);
      }

      .cls-15 {
        clip-path: url(#clippath-10);
      }

      .cls-16 {
        clip-path: url(#clippath-15);
      }

      .cls-17 {
        clip-path: url(#clippath-13);
      }

      .cls-18 {
        clip-path: url(#clippath-14);
      }

      .cls-19 {
        clip-path: url(#clippath-12);
      }

      .cls-20 {
        clip-path: url(#clippath-31);
      }

      .cls-21 {
        clip-path: url(#clippath-32);
      }

      .cls-22 {
        clip-path: url(#clippath-33);
      }

      .cls-23 {
        clip-path: url(#clippath-30);
      }

      .cls-24 {
        clip-path: url(#clippath-27);
      }

      .cls-25 {
        clip-path: url(#clippath-29);
      }

      .cls-26 {
        clip-path: url(#clippath-26);
      }

      .cls-27 {
        clip-path: url(#clippath-28);
      }

      .cls-28 {
        clip-path: url(#clippath-20);
      }

      .cls-29 {
        clip-path: url(#clippath-21);
      }

      .cls-30 {
        clip-path: url(#clippath-22);
      }

      .cls-31 {
        clip-path: url(#clippath-23);
      }

      .cls-32 {
        clip-path: url(#clippath-24);
      }

      .cls-33 {
        clip-path: url(#clippath-25);
      }

      .cls-34 {
        clip-path: url(#clippath-1);
      }

      .cls-35 {
        clip-path: url(#clippath-3);
      }

      .cls-36 {
        clip-path: url(#clippath-4);
      }

      .cls-37 {
        clip-path: url(#clippath-2);
      }

      .cls-38 {
        clip-path: url(#clippath-7);
      }

      .cls-39 {
        clip-path: url(#clippath-6);
      }

      .cls-40 {
        clip-path: url(#clippath-9);
      }

      .cls-41 {
        clip-path: url(#clippath-8);
      }

      .cls-42 {
        clip-path: url(#clippath-5);
      }

      .cls-43 {
        letter-spacing: 0em;
      }

      .cls-44 {
        letter-spacing: 0em;
      }

      .cls-45 {
        letter-spacing: 0em;
      }

      .cls-46 {
        letter-spacing: 0em;
      }

      .cls-2 {
        stroke-linecap: round;
        stroke-width: .67px;
      }

      .cls-2, .cls-3, .cls-4 {
        stroke: #000;
      }

      .cls-2, .cls-3, .cls-4, .cls-5 {
        stroke-linejoin: round;
      }

      .cls-7, .cls-47 {
        font-size: 4.03px;
      }

      .cls-7, .cls-8, .cls-9 {
        font-family: Arial-BoldMT, Arial;
      }

      .cls-48, .cls-47, .cls-49 {
        font-family: ArialMT, Arial;
      }

      .cls-48, .cls-9 {
        font-size: 4.79px;
      }

      .cls-49 {
        font-size: 3.28px;
      }

      .cls-50 {
        letter-spacing: -.1em;
      }

      .cls-51 {
        letter-spacing: -.06em;
      }

      .cls-52 {
        letter-spacing: -.06em;
      }

      .cls-53 {
        letter-spacing: -.03em;
      }

      .cls-54 {
        letter-spacing: -.02em;
      }

      .cls-55 {
        letter-spacing: -.02em;
      }

      .cls-56 {
        letter-spacing: -.03em;
      }

      .cls-57 {
        letter-spacing: -.02em;
      }

      .cls-58 {
        letter-spacing: -.02em;
      }

      .cls-59 {
        letter-spacing: -.02em;
      }

      .cls-60 {
        letter-spacing: -.02em;
      }

      .cls-61 {
        letter-spacing: -.02em;
      }

      .cls-62 {
        letter-spacing: -.02em;
      }

      .cls-63 {
        letter-spacing: -.01em;
      }

      .cls-64 {
        letter-spacing: -.01em;
      }

      .cls-65 {
        letter-spacing: -.05em;
      }

      .cls-66 {
        letter-spacing: -.04em;
      }

      .cls-67 {
        letter-spacing: -.04em;
      }

      .cls-68 {
        letter-spacing: -.04em;
      }

      .cls-69 {
        letter-spacing: -.04em;
      }

      .cls-70 {
        letter-spacing: -.05em;
      }

      .cls-71 {
        letter-spacing: -.03em;
      }

      .cls-72 {
        letter-spacing: -.03em;
      }

      .cls-73 {
        letter-spacing: -.04em;
      }

      .cls-3 {
        stroke-width: .08px;
      }

      .cls-4 {
        stroke-width: .08px;
      }

      .cls-74 {
        letter-spacing: -.03em;
      }

      .cls-75 {
        letter-spacing: -.03em;
      }

      .cls-76 {
        letter-spacing: -.03em;
      }

      .cls-77 {
        letter-spacing: -.04em;
      }

      .cls-78 {
        letter-spacing: -.04em;
      }

      .cls-79 {
        letter-spacing: -.03em;
      }

      .cls-80 {
        letter-spacing: -.03em;
      }

      .cls-81 {
        letter-spacing: -.03em;
      }

      .cls-82 {
        letter-spacing: 0em;
      }

      .cls-83 {
        letter-spacing: 0em;
      }

      .cls-5 {
        stroke: gray;
        stroke-width: .34px;
      }

      .cls-84 {
        letter-spacing: 0em;
      }

      .cls-85 {
        letter-spacing: -.01em;
      }

      .cls-86 {
        letter-spacing: 0em;
      }

      .cls-87 {
        letter-spacing: 0em;
      }

      .cls-88 {
        letter-spacing: 0em;
      }

      .cls-89 {
        letter-spacing: 0em;
      }

      .cls-90 {
        letter-spacing: 0em;
      }

      .cls-91 {
        letter-spacing: .06em;
      }

      .cls-8 {
        font-size: 3.53px;
      }

      .cls-92 {
        letter-spacing: .02em;
      }

      .cls-93 {
        letter-spacing: .02em;
      }

      .cls-94 {
        letter-spacing: .03em;
      }

      .cls-95 {
        letter-spacing: .02em;
      }

      .cls-96 {
        letter-spacing: .02em;
      }

      .cls-97 {
        letter-spacing: .03em;
      }

      .cls-98 {
        letter-spacing: .03em;
      }

      .cls-99 {
        letter-spacing: .02em;
      }

      .cls-100 {
        letter-spacing: .02em;
      }

      .cls-101 {
        letter-spacing: .02em;
      }

      .cls-102 {
        clip-path: url(#clippath);
      }

      .cls-103 {
        letter-spacing: .02em;
      }

      .cls-104 {
        letter-spacing: .01em;
      }

      .cls-105 {
        letter-spacing: .01em;
      }

      .cls-106 {
        letter-spacing: .01em;
      }

      .cls-107 {
        letter-spacing: .01em;
      }

      .cls-108 {
        letter-spacing: .01em;
      }

      .cls-109 {
        letter-spacing: .01em;
      }

      .cls-110 {
        letter-spacing: .03em;
      }

      .cls-111 {
        letter-spacing: .03em;
      }

      .cls-112 {
        letter-spacing: .04em;
      }

      .cls-113 {
        letter-spacing: .03em;
      }

      .cls-114 {
        letter-spacing: .03em;
      }

      .cls-115 {
        letter-spacing: .03em;
      }

      .cls-116 {
        letter-spacing: 0em;
      }

      .cls-117 {
        letter-spacing: 0em;
      }

      .cls-118 {
        letter-spacing: 0em;
      }

      .cls-119 {
        letter-spacing: 0em;
      }

      .cls-120 {
        letter-spacing: 0em;
      }

      .cls-121 {
        letter-spacing: 0em;
      }

      .cls-122 {
        letter-spacing: .01em;
      }

      .cls-123 {
        letter-spacing: 0em;
      }

      .cls-124 {
        letter-spacing: 0em;
      }

      .cls-125 {
        letter-spacing: 0em;
      }
    </style>
    <clipPath id="clippath">
      <rect class="cls-1" width="239.45" height="178.4"/>
    </clipPath>
    <clipPath id="clippath-1">
      <rect class="cls-1" x=".25" y=".25" width="239.2" height="178.13"/>
    </clipPath>
    <clipPath id="clippath-2">
      <rect class="cls-1" x=".25" y=".25" width="239.2" height="178.13"/>
    </clipPath>
    <clipPath id="clippath-3">
      <rect class="cls-1" x=".25" y=".25" width="239.2" height="178.13"/>
    </clipPath>
    <clipPath id="clippath-4">
      <rect class="cls-1" x=".25" y=".25" width="239.2" height="178.13"/>
    </clipPath>
    <clipPath id="clippath-5">
      <rect class="cls-1" x=".25" y=".25" width="239.2" height="178.13"/>
    </clipPath>
    <clipPath id="clippath-6">
      <rect class="cls-1" x=".25" y=".25" width="239.2" height="178.13"/>
    </clipPath>
    <clipPath id="clippath-7">
      <rect class="cls-1" x=".25" y=".25" width="239.2" height="178.13"/>
    </clipPath>
    <clipPath id="clippath-8">
      <rect class="cls-1" x=".25" y=".25" width="239.2" height="178.13"/>
    </clipPath>
    <clipPath id="clippath-9">
      <rect class="cls-1" x=".25" y=".25" width="239.2" height="178.13"/>
    </clipPath>
    <clipPath id="clippath-10">
      <rect class="cls-1" x=".25" y=".25" width="239.2" height="178.13"/>
    </clipPath>
    <clipPath id="clippath-11">
      <rect class="cls-1" x=".25" y=".25" width="239.2" height="178.13"/>
    </clipPath>
    <clipPath id="clippath-12">
      <rect class="cls-1" x=".25" y=".25" width="239.2" height="178.13"/>
    </clipPath>
    <clipPath id="clippath-13">
      <rect class="cls-1" x=".25" y=".25" width="239.2" height="178.13"/>
    </clipPath>
    <clipPath id="clippath-14">
      <rect class="cls-1" x=".25" y=".25" width="239.2" height="178.13"/>
    </clipPath>
    <clipPath id="clippath-15">
      <rect class="cls-1" x=".25" y=".25" width="239.2" height="178.13"/>
    </clipPath>
    <clipPath id="clippath-16">
      <rect class="cls-1" x=".25" y=".25" width="239.2" height="178.13"/>
    </clipPath>
    <clipPath id="clippath-17">
      <rect class="cls-1" x=".25" y=".25" width="239.2" height="178.13"/>
    </clipPath>
    <clipPath id="clippath-18">
      <rect class="cls-1" x=".25" y=".25" width="239.2" height="178.13"/>
    </clipPath>
    <clipPath id="clippath-19">
      <rect class="cls-1" x=".25" y=".25" width="239.2" height="178.13"/>
    </clipPath>
    <clipPath id="clippath-20">
      <rect class="cls-1" x=".25" y=".25" width="239.2" height="178.13"/>
    </clipPath>
    <clipPath id="clippath-21">
      <rect class="cls-1" x=".25" y=".25" width="239.2" height="178.13"/>
    </clipPath>
    <clipPath id="clippath-22">
      <rect class="cls-1" x=".25" y=".25" width="239.2" height="178.13"/>
    </clipPath>
    <clipPath id="clippath-23">
      <rect class="cls-1" x=".25" y=".25" width="239.2" height="178.13"/>
    </clipPath>
    <clipPath id="clippath-24">
      <rect class="cls-1" x=".25" y=".25" width="239.2" height="178.13"/>
    </clipPath>
    <clipPath id="clippath-25">
      <rect class="cls-1" x=".25" y=".25" width="239.2" height="178.13"/>
    </clipPath>
    <clipPath id="clippath-26">
      <rect class="cls-1" x=".25" y=".25" width="239.2" height="178.13"/>
    </clipPath>
    <clipPath id="clippath-27">
      <rect class="cls-1" x=".25" y=".25" width="239.2" height="178.13"/>
    </clipPath>
    <clipPath id="clippath-28">
      <rect class="cls-1" x=".25" y=".25" width="239.2" height="178.13"/>
    </clipPath>
    <clipPath id="clippath-29">
      <rect class="cls-1" x=".25" y=".25" width="239.2" height="178.13"/>
    </clipPath>
    <clipPath id="clippath-30">
      <rect class="cls-1" x=".25" y=".25" width="239.2" height="178.13"/>
    </clipPath>
    <clipPath id="clippath-31">
      <rect class="cls-1" x=".25" y="3.27" width="239.2" height="8.31"/>
    </clipPath>
    <clipPath id="clippath-32">
      <rect class="cls-1" x=".25" y="3.27" width="239.2" height="8.31"/>
    </clipPath>
    <clipPath id="clippath-33">
      <rect class="cls-1" x=".25" y="3.27" width="239.2" height="8.31"/>
    </clipPath>
  </defs>
  <g id="Layer_1-2" data-name="Layer 1">
    <rect class="cls-5" x="21.05" y="21.29" width="200.89" height="136.05"/>
    <line class="cls-4" x1="21.05" y1="157.34" x2="21.05" y2="21.29"/>
    <path class="cls-3" d="M19.79,21.29h2.27M19.79,23.31h2.27M19.79,25.57h2.27M19.79,28.35h2.27M19.79,31.37h2.27M19.79,34.9h2.27M19.79,39.43h2.27M19.79,44.97h2.27M19.79,53.04h2.27M19.79,66.64h2.27M19.79,68.66h2.27M19.79,70.93h2.27M19.79,73.7h2.27M19.79,76.72h2.27M19.79,80.25h2.27M19.79,84.78h2.27M19.79,90.33h2.27M19.79,98.39h2.27M19.79,111.99h2.27M19.79,114.01h2.27M19.79,116.53h2.27M19.79,119.05h2.27M19.79,122.07h2.27M19.79,125.6h2.27M19.79,130.13h2.27M19.79,135.68h2.27M19.79,143.74h2.27M19.79,157.34h2.27"/>
    <line class="cls-3" x1="21.05" y1="157.34" x2="221.93" y2="157.34"/>
    <path class="cls-3" d="M221.93,156.09v2.52M121.36,156.09v2.52M21.05,156.09v2.52M221.93,156.59v1.76M217.4,156.59v1.76M212.1,156.59v1.76M206.31,156.59v1.76M199.5,156.59v1.76M191.69,156.59v1.76M181.86,156.59v1.76M169.26,156.59v1.76M151.61,156.59v1.76M121.36,156.59v1.76M116.83,156.59v1.76M111.79,156.59v1.76M105.74,156.59v1.76M99.18,156.59v1.76M91.12,156.59v1.76M81.54,156.59v1.76M68.94,156.59v1.76M51.29,156.59v1.76M21.05,156.59v1.76"/>
    <g class="cls-102">
      <path class="cls-2" d="M60.87,67.21h47.94c5.04,0,7.51-.32,12.55,0,5.04.32,12.65,1.16,17.69,1.92s7.51,1.43,12.55,2.63c5.04,1.2,11.03,2.18,17.69,4.59,6.66,2.41,15.16,5.84,22.29,9.85,7.13,4.01,13.67,9.47,20.51,14.2"/>
      <path class="cls-2" d="M60.87,67.61h60.49c5.04,0,12.65-.21,17.69,0,5.04.21,7.51.51,12.55,1.29,5.04.78,11.03.99,17.69,3.38,6.66,2.39,15.16,6.47,22.29,10.99,7.13,4.52,13.67,10.75,20.51,16.13"/>
      <path class="cls-2" d="M60.87,67.79h47.94c5.04,0,7.51-.14,12.55,0,5.04.14,12.65-.02,17.69.86s7.51,2.54,12.55,4.41c5.04,1.87,11.03,3.33,17.69,6.82,6.66,3.49,15.16,8,22.29,14.1,7.13,6.11,13.67,15.03,20.51,22.54"/>
    </g>
    <g class="cls-34">
      <text class="cls-49" transform="translate(208.79 106.07)"><tspan class="cls-94" x="0" y="0">B</tspan><tspan class="cls-123" x="2.27" y="0">l</tspan><tspan class="cls-58" x="3.02" y="0">u</tspan><tspan x="4.78" y="0">e</tspan></text>
    </g>
    <g class="cls-37">
      <text class="cls-49" transform="translate(207.48 96.5)"><tspan class="cls-88" x="0" y="0">G</tspan><tspan class="cls-53" x="2.52" y="0">r</tspan><tspan class="cls-91" x="3.53" y="0">e</tspan><tspan class="cls-60" x="5.55" y="0">e</tspan><tspan x="7.31" y="0">n</tspan></text>
    </g>
    <g class="cls-35">
      <text class="cls-49" transform="translate(215.01 117.66)"><tspan class="cls-71" x="0" y="0">R</tspan><tspan class="cls-91" x="2.27" y="0">e</tspan><tspan x="4.28" y="0">d</tspan></text>
    </g>
    <g class="cls-36">
      <text class="cls-48" transform="translate(14.26 158.98)"><tspan x="0" y="0">1</tspan></text>
    </g>
    <g class="cls-42">
      <text class="cls-48" transform="translate(11.64 113.63)"><tspan class="cls-92" x="0" y="0">1</tspan><tspan x="2.77" y="0">0</tspan></text>
    </g>
    <g class="cls-39">
      <text class="cls-48" transform="translate(9.02 68.03)"><tspan class="cls-92" x="0" y="0">1</tspan><tspan class="cls-72" x="2.77" y="0">0</tspan><tspan x="5.29" y="0">0</tspan></text>
    </g>
    <g class="cls-38">
      <text class="cls-48" transform="translate(6.41 22.68)"><tspan class="cls-92" x="0" y="0">1</tspan><tspan class="cls-79" x="2.77" y="0">0</tspan><tspan class="cls-92" x="5.29" y="0">0</tspan><tspan x="8.06" y="0">0</tspan></text>
    </g>
    <g class="cls-41">
      <text class="cls-47" transform="translate(19.8 163.27)"><tspan x="0" y="0">1</tspan></text>
    </g>
    <g class="cls-40">
      <text class="cls-47" transform="translate(119.16 163.27)"><tspan class="cls-119" x="0" y="0">1</tspan><tspan x="2.26" y="0">0</tspan></text>
    </g>
    <g class="cls-15">
      <text class="cls-47" transform="translate(218.53 163.27)"><tspan class="cls-119" x="0" y="0">10</tspan><tspan x="4.52" y="0">0</tspan></text>
    </g>
    <g class="cls-12">
      <text class="cls-9" transform="translate(9.07 114.13) rotate(-90)"><tspan class="cls-107" x="0" y="0">R</tspan><tspan class="cls-74" x="3.52" y="0">E</tspan><tspan class="cls-103" x="6.55" y="0">SP</tspan><tspan class="cls-122" x="13.1" y="0">O</tspan><tspan class="cls-67" x="16.87" y="0">N</tspan><tspan class="cls-103" x="20.15" y="0">SE</tspan><tspan x="26.7" y="0"> </tspan></text>
    </g>
    <g class="cls-19">
      <text class="cls-9" transform="translate(9.07 86.2) rotate(-90)"><tspan class="cls-59" x="0" y="0">(</tspan><tspan class="cls-120" x="1.51" y="0">%</tspan><tspan x="5.79" y="0">)</tspan></text>
    </g>
    <g class="cls-17">
      <text class="cls-7" transform="translate(95.02 171.58)"><tspan class="cls-99" x="0" y="0">S</tspan><tspan class="cls-50" x="2.77" y="0">P</tspan><tspan class="cls-75" x="5.04" y="0">A</tspan><tspan class="cls-65" x="7.81" y="0">T</tspan><tspan class="cls-111" x="10.08" y="0">I</tspan><tspan class="cls-75" x="11.34" y="0">A</tspan><tspan class="cls-104" x="14.11" y="0">L</tspan><tspan class="cls-56" x="16.62" y="0"> </tspan><tspan class="cls-106" x="17.64" y="0">F</tspan><tspan class="cls-98" x="20.15" y="0">R</tspan><tspan class="cls-69" x="23.17" y="0">E</tspan><tspan class="cls-111" x="25.7" y="0">Q</tspan><tspan class="cls-75" x="28.97" y="0">U</tspan><tspan class="cls-99" x="31.74" y="0">E</tspan><tspan class="cls-73" x="34.51" y="0">N</tspan><tspan class="cls-97" x="37.28" y="0">C</tspan><tspan class="cls-68" x="40.3" y="0">Y</tspan><tspan x="42.82" y="0"> </tspan></text>
    </g>
    <g class="cls-18">
      <text class="cls-7" transform="translate(139.09 171.58)"><tspan x="0" y="0">(</tspan></text>
    </g>
    <g class="cls-16">
      <text class="cls-7" transform="translate(140.44 171.58)"><tspan class="cls-119" x="0" y="0">cyc</tspan><tspan class="cls-56" x="6.79" y="0">l</tspan><tspan class="cls-119" x="7.8" y="0">e</tspan><tspan x="10.06" y="0">s</tspan></text>
    </g>
    <g class="cls-13">
      <text class="cls-7" transform="translate(152.77 171.58)"><tspan x="0" y="0">/</tspan></text>
    </g>
    <g class="cls-10">
      <text class="cls-7" transform="translate(153.89 171.58)"><tspan class="cls-63" x="0" y="0">m</tspan><tspan x="3.53" y="0">m</tspan></text>
    </g>
    <g class="cls-14">
      <text class="cls-7" transform="translate(161.06 171.58)"><tspan x="0" y="0">)</tspan></text>
    </g>
    <g class="cls-11">
      <text class="cls-8" transform="translate(38.07 134.79)"><tspan class="cls-55" x="0" y="0">E</tspan><tspan class="cls-108" x="2.27" y="0">x</tspan><tspan class="cls-113" x="4.28" y="0">p</tspan><tspan class="cls-78" x="6.54" y="0">o</tspan><tspan class="cls-108" x="8.56" y="0">s</tspan><tspan class="cls-115" x="10.57" y="0">u</tspan><tspan class="cls-81" x="12.84" y="0">r</tspan><tspan x="14.1" y="0">e</tspan></text>
    </g>
    <g class="cls-28">
      <text class="cls-8" transform="translate(54.15 134.79)"><tspan class="cls-100" x="0" y="0">:</tspan><tspan x="1.26" y="0"> </tspan></text>
    </g>
    <g class="cls-29">
      <text class="cls-8" transform="translate(56.3 134.79)"><tspan class="cls-108" x="0" y="0">55</tspan><tspan class="cls-51" x="4.02" y="0">0</tspan><tspan x="5.79" y="0">0</tspan></text>
    </g>
    <g class="cls-30">
      <text class="cls-8" transform="translate(64.15 134.79)"><tspan class="cls-87" x="0" y="0">K</tspan><tspan class="cls-124" x="2.52" y="0"> </tspan><tspan class="cls-87" x="3.53" y="0">D</tspan><tspan class="cls-101" x="6.05" y="0">ay</tspan><tspan class="cls-116" x="10.08" y="0">l</tspan><tspan class="cls-52" x="11.08" y="0">i</tspan><tspan class="cls-115" x="11.84" y="0">gh</tspan><tspan x="16.37" y="0">t</tspan></text>
    </g>
    <g class="cls-31">
      <text class="cls-8" transform="translate(38.07 138.83)"><tspan class="cls-55" x="0" y="0">P</tspan><tspan class="cls-112" x="2.27" y="0">r</tspan><tspan class="cls-78" x="3.78" y="0">o</tspan><tspan class="cls-108" x="5.8" y="0">ces</tspan><tspan class="cls-46" x="11.83" y="0">s</tspan></text>
    </g>
    <g class="cls-32">
      <text class="cls-8" transform="translate(51.8 138.83)"><tspan class="cls-100" x="0" y="0">:</tspan><tspan x="1.26" y="0"> </tspan></text>
    </g>
    <g class="cls-33">
      <text class="cls-8" transform="translate(53.96 138.83)"><tspan class="cls-57" x="0" y="0">E</tspan><tspan class="cls-82" x="2.27" y="0">C</tspan><tspan x="4.79" y="0">N</tspan></text>
    </g>
    <g class="cls-26">
      <text class="cls-8" transform="translate(61.41 138.83)"><tspan x="0" y="0">-</tspan></text>
    </g>
    <g class="cls-24">
      <text class="cls-8" transform="translate(62.58 138.83)"><tspan x="0" y="0">2</tspan></text>
    </g>
    <g class="cls-27">
      <text class="cls-8" transform="translate(38.07 142.86)"><tspan class="cls-82" x="0" y="0">D</tspan><tspan class="cls-108" x="2.52" y="0">e</tspan><tspan class="cls-78" x="4.53" y="0">n</tspan><tspan class="cls-108" x="6.55" y="0">s</tspan><tspan class="cls-125" x="8.56" y="0">i</tspan><tspan class="cls-96" x="9.57" y="0">t</tspan><tspan class="cls-77" x="10.83" y="0">o</tspan><tspan class="cls-112" x="12.84" y="0">m</tspan><tspan class="cls-105" x="16.12" y="0">e</tspan><tspan class="cls-70" x="18.13" y="0">t</tspan><tspan class="cls-112" x="19.14" y="0">r</tspan><tspan x="20.65" y="0">y</tspan></text>
    </g>
    <g class="cls-25">
      <text class="cls-8" transform="translate(60.62 142.86)"><tspan class="cls-100" x="0" y="0">:</tspan><tspan x="1.26" y="0"> </tspan></text>
    </g>
    <g class="cls-23">
      <text class="cls-8" transform="translate(62.77 142.86)"><tspan class="cls-55" x="0" y="0">S</tspan><tspan class="cls-96" x="2.27" y="0">t</tspan><tspan class="cls-101" x="3.53" y="0">a</tspan><tspan class="cls-70" x="5.54" y="0">t</tspan><tspan class="cls-114" x="6.55" y="0">u</tspan><tspan class="cls-101" x="8.82" y="0">s</tspan><tspan class="cls-124" x="10.83" y="0"> </tspan><tspan class="cls-70" x="11.84" y="0">M</tspan><tspan class="cls-124" x="14.61" y="0" xml:space="preserve">  </tspan><tspan x="16.63" y="0"> </tspan></text>
    </g>
    <g class="cls-20">
      <text class="cls-6" transform="translate(69.89 10.83)"><tspan class="cls-117" x="0" y="0">M</tspan><tspan class="cls-43" x="5.04" y="0">o</tspan><tspan class="cls-85" x="8.56" y="0">d</tspan><tspan class="cls-83" x="12.09" y="0">u</tspan><tspan class="cls-95" x="15.62" y="0">l</tspan><tspan class="cls-61" x="17.63" y="0">a</tspan><tspan class="cls-109" x="20.91" y="0">t</tspan><tspan class="cls-118" x="23.18" y="0">i</tspan><tspan x="24.94" y="0">on</tspan></text>
    </g>
    <g class="cls-21">
      <text class="cls-6" transform="translate(101.38 10.83)"><tspan x="0" y="0">-</tspan></text>
    </g>
    <g class="cls-22">
      <text class="cls-6" transform="translate(103.19 10.83)"><tspan class="cls-66" x="0" y="0">T</tspan><tspan class="cls-90" x="2.78" y="0">r</tspan><tspan class="cls-62" x="5.05" y="0">a</tspan><tspan class="cls-83" x="8.33" y="0">n</tspan><tspan class="cls-93" x="11.86" y="0">s</tspan><tspan class="cls-86" x="15.14" y="0">f</tspan><tspan class="cls-54" x="17.15" y="0">e</tspan><tspan class="cls-89" x="20.43" y="0">r</tspan><tspan class="cls-121" x="22.7" y="0"> </tspan><tspan class="cls-45" x="23.96" y="0">F</tspan><tspan class="cls-83" x="27.23" y="0">u</tspan><tspan class="cls-110" x="30.76" y="0">n</tspan><tspan class="cls-64" x="34.54" y="0">c</tspan><tspan class="cls-109" x="37.82" y="0">t</tspan><tspan class="cls-80" x="40.09" y="0">i</tspan><tspan class="cls-44" x="41.6" y="0">o</tspan><tspan class="cls-110" x="45.12" y="0">n</tspan><tspan class="cls-76" x="48.9" y="0"> </tspan><tspan class="cls-84" x="49.91" y="0">C</tspan><tspan class="cls-110" x="54.2" y="0">u</tspan><tspan class="cls-89" x="57.97" y="0">r</tspan><tspan x="60.25" y="0">v</tspan><tspan class="cls-54" x="63.27" y="0">e</tspan><tspan x="66.55" y="0">s</tspan></text>
    </g>
  </g>
</svg>